<svg width="88" height="38" viewBox="0 0 88 38" fill="none" xmlns="http://www.w3.org/2000/svg">
<path d="M11.424 30.32C9.39733 30.32 7.65867 29.9893 6.208 29.328C4.77867 28.6667 3.65867 27.696 2.848 26.416C2.05867 25.136 1.62133 23.5467 1.536 21.648C1.51467 20.7733 1.504 19.8347 1.504 18.832C1.504 17.8293 1.51467 16.8693 1.536 15.952C1.62133 14.096 2.06933 12.528 2.88 11.248C3.69067 9.94667 4.82133 8.96533 6.272 8.304C7.72267 7.62133 9.44 7.28 11.424 7.28C12.832 7.28 14.1333 7.46133 15.328 7.824C16.5227 8.16533 17.568 8.67733 18.464 9.36C19.36 10.0213 20.0533 10.832 20.544 11.792C21.056 12.7307 21.3227 13.7973 21.344 14.992C21.3653 15.184 21.3013 15.344 21.152 15.472C21.024 15.6 20.864 15.664 20.672 15.664H16.352C16.0747 15.664 15.8613 15.6107 15.712 15.504C15.5627 15.376 15.4347 15.152 15.328 14.832C15.0293 13.7013 14.5387 12.9333 13.856 12.528C13.1947 12.1013 12.3733 11.888 11.392 11.888C10.2187 11.888 9.29067 12.2187 8.608 12.88C7.92533 13.52 7.552 14.5973 7.488 16.112C7.424 17.8613 7.424 19.6533 7.488 21.488C7.552 23.0027 7.92533 24.0907 8.608 24.752C9.29067 25.392 10.2187 25.712 11.392 25.712C12.3733 25.712 13.2053 25.4987 13.888 25.072C14.5707 24.6453 15.0507 23.8773 15.328 22.768C15.4133 22.448 15.5307 22.2347 15.68 22.128C15.8507 22 16.0747 21.936 16.352 21.936H20.672C20.864 21.936 21.024 22 21.152 22.128C21.3013 22.256 21.3653 22.416 21.344 22.608C21.3227 23.8027 21.056 24.88 20.544 25.84C20.0533 26.7787 19.36 27.5893 18.464 28.272C17.568 28.9333 16.5227 29.4453 15.328 29.808C14.1333 30.1493 12.832 30.32 11.424 30.32ZM33.2208 30.32C31.2581 30.32 29.5514 30 28.1008 29.36C26.6501 28.72 25.5194 27.76 24.7088 26.48C23.8981 25.1787 23.4501 23.5573 23.3648 21.616C23.3434 20.6987 23.3328 19.7813 23.3328 18.864C23.3328 17.9467 23.3434 17.0187 23.3648 16.08C23.4501 14.16 23.8981 12.5493 24.7088 11.248C25.5408 9.92533 26.6821 8.93333 28.1328 8.272C29.5834 7.61067 31.2794 7.28 33.2208 7.28C35.1408 7.28 36.8261 7.61067 38.2768 8.272C39.7488 8.93333 40.9008 9.92533 41.7328 11.248C42.5648 12.5493 43.0128 14.16 43.0768 16.08C43.1194 17.0187 43.1408 17.9467 43.1408 18.864C43.1408 19.7813 43.1194 20.6987 43.0768 21.616C42.9914 23.5573 42.5434 25.1787 41.7328 26.48C40.9221 27.76 39.7914 28.72 38.3408 29.36C36.8901 30 35.1834 30.32 33.2208 30.32ZM33.2208 25.712C34.3514 25.712 35.2688 25.3707 35.9728 24.688C36.6981 24.0053 37.0821 22.9173 37.1248 21.424C37.1674 20.4853 37.1888 19.6 37.1888 18.768C37.1888 17.936 37.1674 17.072 37.1248 16.176C37.0821 15.1733 36.8901 14.3627 36.5488 13.744C36.2288 13.104 35.7808 12.6347 35.2048 12.336C34.6288 12.0373 33.9674 11.888 33.2208 11.888C32.4954 11.888 31.8448 12.0373 31.2688 12.336C30.6928 12.6347 30.2341 13.104 29.8928 13.744C29.5514 14.3627 29.3594 15.1733 29.3168 16.176C29.2954 17.072 29.2848 17.936 29.2848 18.768C29.2848 19.6 29.2954 20.4853 29.3168 21.424C29.3808 22.9173 29.7648 24.0053 30.4688 24.688C31.1728 25.3707 32.0901 25.712 33.2208 25.712ZM55.362 30.32C53.3993 30.32 51.6927 30 50.242 29.36C48.7913 28.72 47.6607 27.76 46.85 26.48C46.0393 25.1787 45.5913 23.5573 45.506 21.616C45.4847 20.6987 45.474 19.7813 45.474 18.864C45.474 17.9467 45.4847 17.0187 45.506 16.08C45.5913 14.16 46.0393 12.5493 46.85 11.248C47.682 9.92533 48.8233 8.93333 50.274 8.272C51.7247 7.61067 53.4207 7.28 55.362 7.28C57.282 7.28 58.9673 7.61067 60.418 8.272C61.89 8.93333 63.042 9.92533 63.874 11.248C64.706 12.5493 65.154 14.16 65.218 16.08C65.2607 17.0187 65.282 17.9467 65.282 18.864C65.282 19.7813 65.2607 20.6987 65.218 21.616C65.1327 23.5573 64.6847 25.1787 63.874 26.48C63.0633 27.76 61.9327 28.72 60.482 29.36C59.0313 30 57.3247 30.32 55.362 30.32ZM55.362 25.712C56.4927 25.712 57.41 25.3707 58.114 24.688C58.8393 24.0053 59.2233 22.9173 59.266 21.424C59.3087 20.4853 59.33 19.6 59.33 18.768C59.33 17.936 59.3087 17.072 59.266 16.176C59.2233 15.1733 59.0313 14.3627 58.69 13.744C58.37 13.104 57.922 12.6347 57.346 12.336C56.77 12.0373 56.1087 11.888 55.362 11.888C54.6367 11.888 53.986 12.0373 53.41 12.336C52.834 12.6347 52.3753 13.104 52.034 13.744C51.6927 14.3627 51.5007 15.1733 51.458 16.176C51.4367 17.072 51.426 17.936 51.426 18.768C51.426 19.6 51.4367 20.4853 51.458 21.424C51.522 22.9173 51.906 24.0053 52.61 24.688C53.314 25.3707 54.2313 25.712 55.362 25.712ZM69.1513 30C68.9166 30 68.7246 29.9253 68.5753 29.776C68.4259 29.6267 68.3513 29.4347 68.3513 29.2V8.4C68.3513 8.16533 68.4259 7.97333 68.5753 7.824C68.7246 7.67467 68.9166 7.6 69.1513 7.6H73.1833C73.4179 7.6 73.6099 7.67467 73.7593 7.824C73.9086 7.97333 73.9833 8.16533 73.9833 8.4V15.504L79.9033 8.208C79.9886 8.08 80.1273 7.952 80.3193 7.824C80.5326 7.67467 80.8099 7.6 81.1513 7.6H85.7593C85.9513 7.6 86.1113 7.67467 86.2393 7.824C86.3673 7.952 86.4313 8.10133 86.4313 8.272C86.4313 8.42133 86.3886 8.54933 86.3033 8.656L78.6553 18.32L86.9113 28.944C86.9966 29.0293 87.0393 29.1573 87.0393 29.328C87.0393 29.4987 86.9646 29.6587 86.8153 29.808C86.6873 29.936 86.5379 30 86.3673 30H81.5993C81.2153 30 80.9166 29.9147 80.7033 29.744C80.5113 29.5733 80.3833 29.4453 80.3193 29.36L73.9833 21.456V29.2C73.9833 29.4347 73.9086 29.6267 73.7593 29.776C73.6099 29.9253 73.4179 30 73.1833 30H69.1513Z" fill="#D27722"/>
</svg>
